<mxfile modified="2021-04-28T13:36:29.979Z" host="app.diagrams.net" agent="5.0 (X11; Linux x86_64) AppleWebKit/537.36 (KHTML, like Gecko) Chrome/80.0.3987.122 Safari/537.36" etag="RWGrF5lY0mpaZQS_iWMb" version="14.6.6" type="github">
  <diagram id="Ht1M8jgEwFfnCIfOTk4-" name="Page-1">
    <mxGraphModel dx="1551" dy="1658" grid="1" gridSize="10" guides="1" tooltips="1" connect="1" arrows="1" fold="1" page="1" pageScale="1" pageWidth="1169" pageHeight="827" math="0" shadow="0">
      <root>
        <mxCell id="0" />
        <mxCell id="1" parent="0" />
        <mxCell id="UEzPUAAOIrF-is8g5C7q-74" value="AWS Cloud" style="points=[[0,0],[0.25,0],[0.5,0],[0.75,0],[1,0],[1,0.25],[1,0.5],[1,0.75],[1,1],[0.75,1],[0.5,1],[0.25,1],[0,1],[0,0.75],[0,0.5],[0,0.25]];outlineConnect=0;gradientColor=none;html=1;whiteSpace=wrap;fontSize=12;fontStyle=0;shape=mxgraph.aws4.group;grIcon=mxgraph.aws4.group_aws_cloud_alt;strokeColor=#232F3E;fillColor=#FFFFFF;verticalAlign=top;align=left;spacingLeft=30;fontColor=#232F3E;dashed=0;labelBackgroundColor=#ffffff;" parent="1" vertex="1">
          <mxGeometry x="40" y="90" width="1090" height="710" as="geometry" />
        </mxCell>
        <mxCell id="5AGytH0vMHzYRCZaH0UC-7" value="" style="rounded=0;whiteSpace=wrap;html=1;labelBackgroundColor=none;fillColor=#E6E6E6;dashed=1;" vertex="1" parent="1">
          <mxGeometry x="460" y="110" width="320" height="670" as="geometry" />
        </mxCell>
        <mxCell id="UEzPUAAOIrF-is8g5C7q-107" value="" style="rounded=0;whiteSpace=wrap;html=1;labelBackgroundColor=none;fillColor=#E6E6E6;dashed=1;strokeColor=#3333FF;" parent="1" vertex="1">
          <mxGeometry x="80" y="110" width="350" height="670" as="geometry" />
        </mxCell>
        <mxCell id="5AGytH0vMHzYRCZaH0UC-9" value="" style="rounded=0;whiteSpace=wrap;html=1;labelBackgroundColor=none;fillColor=#E6E6E6;dashed=1;" vertex="1" parent="1">
          <mxGeometry x="820" y="100" width="280" height="670" as="geometry" />
        </mxCell>
        <mxCell id="5AGytH0vMHzYRCZaH0UC-3" value="" style="rounded=0;whiteSpace=wrap;html=1;labelBackgroundColor=none;fillColor=#FFFFFF;dashed=1;" vertex="1" parent="1">
          <mxGeometry x="115" y="130" width="940" height="160" as="geometry" />
        </mxCell>
        <mxCell id="5AGytH0vMHzYRCZaH0UC-1" value="" style="rounded=1;whiteSpace=wrap;html=1;fillColor=#FFFFFF;" vertex="1" parent="1">
          <mxGeometry x="100" y="420" width="310" height="320" as="geometry" />
        </mxCell>
        <mxCell id="5AGytH0vMHzYRCZaH0UC-41" value="Ingress-Controller" style="text;strokeColor=none;fillColor=none;html=1;whiteSpace=wrap;verticalAlign=middle;overflow=hidden;" vertex="1" parent="1">
          <mxGeometry x="480" y="219" width="180" height="40" as="geometry" />
        </mxCell>
        <mxCell id="UEzPUAAOIrF-is8g5C7q-104" style="edgeStyle=orthogonalEdgeStyle;rounded=0;orthogonalLoop=1;jettySize=auto;html=1;endArrow=open;endFill=0;strokeWidth=2;" parent="1" edge="1">
          <mxGeometry relative="1" as="geometry">
            <mxPoint x="603.29" y="47.925114009120755" as="sourcePoint" />
            <mxPoint x="603.29" y="140" as="targetPoint" />
          </mxGeometry>
        </mxCell>
        <mxCell id="5AGytH0vMHzYRCZaH0UC-2" value="" style="outlineConnect=0;fontColor=#232F3E;gradientColor=none;fillColor=#5A30B5;strokeColor=none;dashed=0;verticalLabelPosition=bottom;verticalAlign=top;align=center;html=1;fontSize=12;fontStyle=0;aspect=fixed;pointerEvents=1;shape=mxgraph.aws4.application_load_balancer;" vertex="1" parent="1">
          <mxGeometry x="580" y="140" width="50" height="50" as="geometry" />
        </mxCell>
        <mxCell id="5AGytH0vMHzYRCZaH0UC-8" value="" style="rounded=1;whiteSpace=wrap;html=1;fillColor=#FFFFFF;" vertex="1" parent="1">
          <mxGeometry x="480" y="440" width="290" height="290" as="geometry" />
        </mxCell>
        <mxCell id="5AGytH0vMHzYRCZaH0UC-10" value="" style="rounded=1;whiteSpace=wrap;html=1;fillColor=#FFFFFF;" vertex="1" parent="1">
          <mxGeometry x="840" y="450" width="250" height="280" as="geometry" />
        </mxCell>
        <mxCell id="5AGytH0vMHzYRCZaH0UC-12" value="" style="shape=actor;whiteSpace=wrap;html=1;strokeColor=#3333FF;fillColor=#0000FF;" vertex="1" parent="1">
          <mxGeometry x="310" y="10" width="20" height="30" as="geometry" />
        </mxCell>
        <mxCell id="5AGytH0vMHzYRCZaH0UC-13" value="" style="shape=actor;whiteSpace=wrap;html=1;strokeColor=#3333FF;fillColor=#FFFF66;" vertex="1" parent="1">
          <mxGeometry x="327" y="20" width="20" height="30" as="geometry" />
        </mxCell>
        <mxCell id="5AGytH0vMHzYRCZaH0UC-14" value="" style="shape=actor;whiteSpace=wrap;html=1;strokeColor=#3333FF;fillColor=#FF7221;" vertex="1" parent="1">
          <mxGeometry x="345" y="30" width="20" height="30" as="geometry" />
        </mxCell>
        <mxCell id="5AGytH0vMHzYRCZaH0UC-18" value="" style="edgeStyle=elbowEdgeStyle;elbow=horizontal;endArrow=classic;html=1;exitX=0.75;exitY=0.25;exitDx=0;exitDy=0;exitPerimeter=0;entryX=0;entryY=0.5;entryDx=0;entryDy=0;entryPerimeter=0;" edge="1" parent="1" source="5AGytH0vMHzYRCZaH0UC-14" target="5AGytH0vMHzYRCZaH0UC-19">
          <mxGeometry width="50" height="50" relative="1" as="geometry">
            <mxPoint x="400" y="90" as="sourcePoint" />
            <mxPoint x="500" y="18" as="targetPoint" />
            <Array as="points">
              <mxPoint x="490" y="30" />
            </Array>
          </mxGeometry>
        </mxCell>
        <mxCell id="5AGytH0vMHzYRCZaH0UC-19" value="" style="points=[[0,0,0],[0.25,0,0],[0.5,0,0],[0.75,0,0],[1,0,0],[0,1,0],[0.25,1,0],[0.5,1,0],[0.75,1,0],[1,1,0],[0,0.25,0],[0,0.5,0],[0,0.75,0],[1,0.25,0],[1,0.5,0],[1,0.75,0]];outlineConnect=0;fontColor=#232F3E;gradientColor=#945DF2;gradientDirection=north;fillColor=#5A30B5;strokeColor=#ffffff;dashed=0;verticalLabelPosition=bottom;verticalAlign=top;align=center;html=1;fontSize=12;fontStyle=0;aspect=fixed;shape=mxgraph.aws4.resourceIcon;resIcon=mxgraph.aws4.route_53;" vertex="1" parent="1">
          <mxGeometry x="570" y="-14" width="78" height="78" as="geometry" />
        </mxCell>
        <mxCell id="5AGytH0vMHzYRCZaH0UC-21" value="LB ingress-nginx" style="text;strokeColor=none;fillColor=none;html=1;whiteSpace=wrap;verticalAlign=middle;overflow=hidden;" vertex="1" parent="1">
          <mxGeometry x="630" y="145" width="180" height="40" as="geometry" />
        </mxCell>
        <mxCell id="5AGytH0vMHzYRCZaH0UC-23" style="edgeStyle=orthogonalEdgeStyle;rounded=0;orthogonalLoop=1;jettySize=auto;html=1;endArrow=open;endFill=0;strokeWidth=2;" edge="1" parent="1" source="5AGytH0vMHzYRCZaH0UC-2">
          <mxGeometry relative="1" as="geometry">
            <mxPoint x="613" y="220" as="sourcePoint" />
            <mxPoint x="605" y="216" as="targetPoint" />
          </mxGeometry>
        </mxCell>
        <mxCell id="5AGytH0vMHzYRCZaH0UC-27" value="&lt;ul&gt;&lt;li&gt;&lt;span&gt;details.nonlive.customer.platform.otto.de&lt;/span&gt;&lt;br&gt;&lt;/li&gt;&lt;li&gt;updater.nonlive.customer.platform.otto.de&lt;/li&gt;&lt;li&gt;toolbelt.nonlive.customer.platform.otto.de&lt;br&gt;&lt;/li&gt;&lt;li&gt;ingester.nonlive.customer.platform.otto.de&lt;br&gt;&lt;/li&gt;&lt;/ul&gt;" style="text;strokeColor=none;fillColor=none;html=1;whiteSpace=wrap;verticalAlign=middle;overflow=hidden;" vertex="1" parent="1">
          <mxGeometry x="290" y="125" width="300" height="70" as="geometry" />
        </mxCell>
        <mxCell id="5AGytH0vMHzYRCZaH0UC-28" value="" style="outlineConnect=0;fontColor=#232F3E;gradientColor=none;fillColor=#66FFFF;strokeColor=none;dashed=0;verticalLabelPosition=bottom;verticalAlign=top;align=center;html=1;fontSize=12;fontStyle=0;aspect=fixed;pointerEvents=1;shape=mxgraph.aws4.internet_alt1;" vertex="1" parent="1">
          <mxGeometry x="277.5" width="32.5" height="20" as="geometry" />
        </mxCell>
        <mxCell id="5AGytH0vMHzYRCZaH0UC-29" value="" style="points=[[0,0,0],[0.25,0,0],[0.5,0,0],[0.75,0,0],[1,0,0],[0,1,0],[0.25,1,0],[0.5,1,0],[0.75,1,0],[1,1,0],[0,0.25,0],[0,0.5,0],[0,0.75,0],[1,0.25,0],[1,0.5,0],[1,0.75,0]];outlineConnect=0;fontColor=#232F3E;gradientColor=#F78E04;gradientDirection=north;fillColor=#D05C17;strokeColor=#ffffff;dashed=0;verticalLabelPosition=bottom;verticalAlign=top;align=center;html=1;fontSize=12;fontStyle=0;aspect=fixed;shape=mxgraph.aws4.resourceIcon;resIcon=mxgraph.aws4.ec2;" vertex="1" parent="1">
          <mxGeometry x="80" y="390" width="60" height="60" as="geometry" />
        </mxCell>
        <mxCell id="5AGytH0vMHzYRCZaH0UC-30" value="" style="points=[[0,0,0],[0.25,0,0],[0.5,0,0],[0.75,0,0],[1,0,0],[0,1,0],[0.25,1,0],[0.5,1,0],[0.75,1,0],[1,1,0],[0,0.25,0],[0,0.5,0],[0,0.75,0],[1,0.25,0],[1,0.5,0],[1,0.75,0]];outlineConnect=0;fontColor=#232F3E;gradientColor=#F78E04;gradientDirection=north;fillColor=#D05C17;strokeColor=#ffffff;dashed=0;verticalLabelPosition=bottom;verticalAlign=top;align=center;html=1;fontSize=12;fontStyle=0;aspect=fixed;shape=mxgraph.aws4.resourceIcon;resIcon=mxgraph.aws4.ec2;" vertex="1" parent="1">
          <mxGeometry x="500" y="414" width="50" height="50" as="geometry" />
        </mxCell>
        <mxCell id="5AGytH0vMHzYRCZaH0UC-31" value="" style="points=[[0,0,0],[0.25,0,0],[0.5,0,0],[0.75,0,0],[1,0,0],[0,1,0],[0.25,1,0],[0.5,1,0],[0.75,1,0],[1,1,0],[0,0.25,0],[0,0.5,0],[0,0.75,0],[1,0.25,0],[1,0.5,0],[1,0.75,0]];outlineConnect=0;fontColor=#232F3E;gradientColor=#F78E04;gradientDirection=north;fillColor=#D05C17;strokeColor=#ffffff;dashed=0;verticalLabelPosition=bottom;verticalAlign=top;align=center;html=1;fontSize=12;fontStyle=0;aspect=fixed;shape=mxgraph.aws4.resourceIcon;resIcon=mxgraph.aws4.ec2;" vertex="1" parent="1">
          <mxGeometry x="840" y="420" width="60" height="60" as="geometry" />
        </mxCell>
        <mxCell id="5AGytH0vMHzYRCZaH0UC-33" value="" style="edgeStyle=none;rounded=0;orthogonalLoop=1;jettySize=auto;html=1;" edge="1" parent="1" source="5AGytH0vMHzYRCZaH0UC-32" target="5AGytH0vMHzYRCZaH0UC-1">
          <mxGeometry relative="1" as="geometry" />
        </mxCell>
        <mxCell id="5AGytH0vMHzYRCZaH0UC-32" value="Worker Node 1" style="text;strokeColor=none;fillColor=none;html=1;whiteSpace=wrap;verticalAlign=middle;overflow=hidden;" vertex="1" parent="1">
          <mxGeometry x="140" y="380" width="90" height="40" as="geometry" />
        </mxCell>
        <mxCell id="5AGytH0vMHzYRCZaH0UC-34" value="Worker Node 2" style="text;strokeColor=none;fillColor=none;html=1;whiteSpace=wrap;verticalAlign=middle;overflow=hidden;" vertex="1" parent="1">
          <mxGeometry x="510" y="390" width="90" height="40" as="geometry" />
        </mxCell>
        <mxCell id="5AGytH0vMHzYRCZaH0UC-35" value="Worker Node 3" style="text;strokeColor=none;fillColor=none;html=1;whiteSpace=wrap;verticalAlign=middle;overflow=hidden;" vertex="1" parent="1">
          <mxGeometry x="860" y="400" width="90" height="40" as="geometry" />
        </mxCell>
        <mxCell id="5AGytH0vMHzYRCZaH0UC-43" value="" style="curved=1;endArrow=classic;html=1;exitX=0.5;exitY=1;exitDx=0;exitDy=0;exitPerimeter=0;" edge="1" parent="1" target="5AGytH0vMHzYRCZaH0UC-52">
          <mxGeometry width="50" height="50" relative="1" as="geometry">
            <mxPoint x="605" y="270" as="sourcePoint" />
            <mxPoint x="450" y="330" as="targetPoint" />
            <Array as="points">
              <mxPoint x="280" y="290" />
              <mxPoint x="400" y="330" />
            </Array>
          </mxGeometry>
        </mxCell>
        <mxCell id="5AGytH0vMHzYRCZaH0UC-45" value="" style="curved=1;endArrow=classic;html=1;entryX=0.5;entryY=0;entryDx=0;entryDy=0;entryPerimeter=0;" edge="1" parent="1" source="5AGytH0vMHzYRCZaH0UC-41" target="5AGytH0vMHzYRCZaH0UC-56">
          <mxGeometry width="50" height="50" relative="1" as="geometry">
            <mxPoint x="700" y="380" as="sourcePoint" />
            <mxPoint x="750" y="330" as="targetPoint" />
            <Array as="points">
              <mxPoint x="840" y="310" />
              <mxPoint x="700" y="330" />
            </Array>
          </mxGeometry>
        </mxCell>
        <mxCell id="5AGytH0vMHzYRCZaH0UC-46" value="" style="curved=1;endArrow=classic;html=1;entryX=0.5;entryY=0;entryDx=0;entryDy=0;exitX=0.72;exitY=0.99;exitDx=0;exitDy=0;exitPerimeter=0;entryPerimeter=0;" edge="1" parent="1" target="5AGytH0vMHzYRCZaH0UC-54">
          <mxGeometry width="50" height="50" relative="1" as="geometry">
            <mxPoint x="616" y="269.52" as="sourcePoint" />
            <mxPoint x="660" y="295" as="targetPoint" />
            <Array as="points">
              <mxPoint x="660" y="345" />
              <mxPoint x="610" y="295" />
            </Array>
          </mxGeometry>
        </mxCell>
        <mxCell id="5AGytH0vMHzYRCZaH0UC-47" value="" style="curved=1;endArrow=classic;html=1;entryX=0.5;entryY=0;entryDx=0;entryDy=0;exitX=0.75;exitY=1;exitDx=0;exitDy=0;" edge="1" parent="1" source="5AGytH0vMHzYRCZaH0UC-41">
          <mxGeometry width="50" height="50" relative="1" as="geometry">
            <mxPoint x="678" y="280" as="sourcePoint" />
            <mxPoint x="737" y="450" as="targetPoint" />
            <Array as="points">
              <mxPoint x="762" y="360" />
              <mxPoint x="672" y="305" />
            </Array>
          </mxGeometry>
        </mxCell>
        <mxCell id="5AGytH0vMHzYRCZaH0UC-49" value="" style="strokeColor=#dddddd;shadow=1;strokeWidth=1;rounded=1;absoluteArcSize=1;arcSize=2;fillColor=#67AB9F;" vertex="1" parent="1">
          <mxGeometry x="810" y="135" width="130" height="45" as="geometry" />
        </mxCell>
        <mxCell id="5AGytH0vMHzYRCZaH0UC-50" value="&lt;font color=&quot;#000000&quot;&gt;External DNS&lt;br&gt;&lt;br&gt;&lt;/font&gt;" style="dashed=0;connectable=0;html=1;fillColor=#5184F3;strokeColor=none;shape=mxgraph.gcp2.hexIcon;prIcon=cloud_dns;part=1;labelPosition=right;verticalLabelPosition=middle;align=left;verticalAlign=middle;spacingLeft=5;fontColor=#999999;fontSize=12;" vertex="1" parent="5AGytH0vMHzYRCZaH0UC-49">
          <mxGeometry y="0.5" width="44" height="39" relative="1" as="geometry">
            <mxPoint x="5" y="-19.5" as="offset" />
          </mxGeometry>
        </mxCell>
        <mxCell id="5AGytH0vMHzYRCZaH0UC-51" value="" style="shape=mxgraph.cisco.misc.route_switch_processor;html=1;pointerEvents=1;dashed=0;fillColor=#036897;strokeColor=#ffffff;strokeWidth=2;verticalLabelPosition=bottom;verticalAlign=top;align=center;outlineConnect=0;" vertex="1" parent="1">
          <mxGeometry x="580" y="195" width="65" height="85" as="geometry" />
        </mxCell>
        <mxCell id="5AGytH0vMHzYRCZaH0UC-52" value="customer" style="html=1;strokeColor=none;fillColor=#0079D6;labelPosition=center;verticalLabelPosition=middle;verticalAlign=top;align=center;fontSize=12;outlineConnect=0;spacingTop=-6;fontColor=#FFFFFF;shape=mxgraph.sitemap.services;" vertex="1" parent="1">
          <mxGeometry x="160" y="430" width="110" height="40" as="geometry" />
        </mxCell>
        <mxCell id="5AGytH0vMHzYRCZaH0UC-53" value="ingester" style="html=1;strokeColor=none;fillColor=#0079D6;labelPosition=center;verticalLabelPosition=middle;verticalAlign=top;align=center;fontSize=12;outlineConnect=0;spacingTop=-6;fontColor=#FFFFFF;shape=mxgraph.sitemap.services;" vertex="1" parent="1">
          <mxGeometry x="282" y="430" width="110" height="40" as="geometry" />
        </mxCell>
        <mxCell id="5AGytH0vMHzYRCZaH0UC-54" value="updater" style="html=1;strokeColor=none;fillColor=#0079D6;labelPosition=center;verticalLabelPosition=middle;verticalAlign=top;align=center;fontSize=12;outlineConnect=0;spacingTop=-6;fontColor=#FFFFFF;shape=mxgraph.sitemap.services;" vertex="1" parent="1">
          <mxGeometry x="515" y="450" width="110" height="40" as="geometry" />
        </mxCell>
        <mxCell id="5AGytH0vMHzYRCZaH0UC-55" value="toolbelt" style="html=1;strokeColor=none;fillColor=#0079D6;labelPosition=center;verticalLabelPosition=middle;verticalAlign=top;align=center;fontSize=12;outlineConnect=0;spacingTop=-6;fontColor=#FFFFFF;shape=mxgraph.sitemap.services;" vertex="1" parent="1">
          <mxGeometry x="650" y="450" width="110" height="40" as="geometry" />
        </mxCell>
        <mxCell id="5AGytH0vMHzYRCZaH0UC-56" value="prometheus" style="html=1;strokeColor=none;fillColor=#0079D6;labelPosition=center;verticalLabelPosition=middle;verticalAlign=top;align=center;fontSize=12;outlineConnect=0;spacingTop=-6;fontColor=#FFFFFF;shape=mxgraph.sitemap.services;" vertex="1" parent="1">
          <mxGeometry x="870" y="470" width="110" height="40" as="geometry" />
        </mxCell>
        <mxCell id="5AGytH0vMHzYRCZaH0UC-57" style="edgeStyle=none;rounded=0;orthogonalLoop=1;jettySize=auto;html=1;exitX=0.5;exitY=1;exitDx=0;exitDy=0;exitPerimeter=0;" edge="1" parent="1" source="5AGytH0vMHzYRCZaH0UC-56" target="5AGytH0vMHzYRCZaH0UC-56">
          <mxGeometry relative="1" as="geometry" />
        </mxCell>
        <mxCell id="5AGytH0vMHzYRCZaH0UC-58" value="testaccount" style="html=1;strokeColor=none;fillColor=#0079D6;labelPosition=center;verticalLabelPosition=middle;verticalAlign=top;align=center;fontSize=12;outlineConnect=0;spacingTop=-6;fontColor=#FFFFFF;shape=mxgraph.sitemap.services;" vertex="1" parent="1">
          <mxGeometry x="990" y="470" width="90" height="40" as="geometry" />
        </mxCell>
        <mxCell id="5AGytH0vMHzYRCZaH0UC-48" value="&lt;div&gt;&lt;br&gt;&lt;/div&gt;&lt;span style=&quot;font-size: 10px&quot;&gt;details.nonlive.customer.platform.otto.de&lt;/span&gt;" style="text;strokeColor=none;fillColor=none;html=1;whiteSpace=wrap;verticalAlign=middle;overflow=hidden;" vertex="1" parent="1">
          <mxGeometry x="147" y="320" width="283" height="40" as="geometry" />
        </mxCell>
        <mxCell id="5AGytH0vMHzYRCZaH0UC-60" value="&lt;div&gt;&lt;br&gt;&lt;/div&gt;&lt;span style=&quot;font-size: 10px&quot;&gt;updater.nonlive.customer.platform.otto.de&lt;/span&gt;" style="text;strokeColor=none;fillColor=none;html=1;whiteSpace=wrap;verticalAlign=middle;overflow=hidden;" vertex="1" parent="1">
          <mxGeometry x="440" y="310" width="283" height="40" as="geometry" />
        </mxCell>
        <mxCell id="5AGytH0vMHzYRCZaH0UC-61" value="&lt;div&gt;&lt;br&gt;&lt;/div&gt;&lt;span style=&quot;font-size: 10px&quot;&gt;toolbelt.nonlive.customer.platform.otto.de&lt;/span&gt;" style="text;strokeColor=none;fillColor=none;html=1;whiteSpace=wrap;verticalAlign=middle;overflow=hidden;" vertex="1" parent="1">
          <mxGeometry x="625" y="360" width="283" height="40" as="geometry" />
        </mxCell>
        <mxCell id="5AGytH0vMHzYRCZaH0UC-62" value="&lt;div&gt;&lt;br&gt;&lt;/div&gt;&lt;span style=&quot;font-size: 10px&quot;&gt;prometheus.nonlive.customer.platform.otto.de&lt;/span&gt;" style="text;strokeColor=none;fillColor=none;html=1;whiteSpace=wrap;verticalAlign=middle;overflow=hidden;" vertex="1" parent="1">
          <mxGeometry x="723" y="330" width="283" height="40" as="geometry" />
        </mxCell>
        <mxCell id="5AGytH0vMHzYRCZaH0UC-65" value="&lt;div&gt;&lt;br&gt;&lt;/div&gt;&lt;span style=&quot;font-size: 10px&quot;&gt;testaccounts.nonlive.customer.platform.otto.de&lt;/span&gt;" style="text;strokeColor=none;fillColor=none;html=1;whiteSpace=wrap;verticalAlign=middle;overflow=hidden;" vertex="1" parent="1">
          <mxGeometry x="847" y="360" width="283" height="40" as="geometry" />
        </mxCell>
        <mxCell id="5AGytH0vMHzYRCZaH0UC-67" value="" style="curved=1;endArrow=classic;html=1;entryX=0.444;entryY=0.125;entryDx=0;entryDy=0;entryPerimeter=0;" edge="1" parent="1">
          <mxGeometry width="50" height="50" relative="1" as="geometry">
            <mxPoint x="645" y="242.3834115805946" as="sourcePoint" />
            <mxPoint x="1029.96" y="472" as="targetPoint" />
            <Array as="points">
              <mxPoint x="932" y="312" />
              <mxPoint x="792" y="332" />
            </Array>
          </mxGeometry>
        </mxCell>
        <mxCell id="5AGytH0vMHzYRCZaH0UC-68" value="&lt;span style=&quot;color: rgb(22 , 25 , 31) ; font-family: &amp;#34;amazon ember&amp;#34; , &amp;#34;helvetica neue&amp;#34; , &amp;#34;roboto&amp;#34; , &amp;#34;arial&amp;#34; , sans-serif ; background-color: rgb(255 , 255 , 255)&quot;&gt;&lt;font style=&quot;font-size: 12px&quot;&gt;nonlive.customer.platform.otto.de&lt;/font&gt;&lt;/span&gt;" style="text;strokeColor=none;fillColor=none;html=1;whiteSpace=wrap;verticalAlign=middle;overflow=hidden;" vertex="1" parent="1">
          <mxGeometry x="365" width="215" height="20" as="geometry" />
        </mxCell>
        <mxCell id="5AGytH0vMHzYRCZaH0UC-73" value="" style="html=1;dashed=0;whitespace=wrap;fillColor=#FF3333;strokeColor=#ffffff;points=[[0.005,0.63,0],[0.1,0.2,0],[0.9,0.2,0],[0.5,0,0],[0.995,0.63,0],[0.72,0.99,0],[0.5,1,0],[0.28,0.99,0]];shape=mxgraph.kubernetes.icon;prIcon=pod" vertex="1" parent="1">
          <mxGeometry x="110" y="518" width="60" height="62" as="geometry" />
        </mxCell>
        <mxCell id="5AGytH0vMHzYRCZaH0UC-74" value="" style="html=1;dashed=0;whitespace=wrap;fillColor=#FFFF33;strokeColor=#ffffff;points=[[0.005,0.63,0],[0.1,0.2,0],[0.9,0.2,0],[0.5,0,0],[0.995,0.63,0],[0.72,0.99,0],[0.5,1,0],[0.28,0.99,0]];shape=mxgraph.kubernetes.icon;prIcon=pod;direction=south;" vertex="1" parent="1">
          <mxGeometry x="211.01" y="524.5" width="61" height="70" as="geometry" />
        </mxCell>
        <mxCell id="5AGytH0vMHzYRCZaH0UC-76" value="" style="html=1;dashed=0;whitespace=wrap;fillColor=#FFFF33;strokeColor=#ffffff;points=[[0.005,0.63,0],[0.1,0.2,0],[0.9,0.2,0],[0.5,0,0],[0.995,0.63,0],[0.72,0.99,0],[0.5,1,0],[0.28,0.99,0]];shape=mxgraph.kubernetes.icon;prIcon=pod;direction=south;" vertex="1" parent="1">
          <mxGeometry x="554.5" y="574.5" width="61" height="70" as="geometry" />
        </mxCell>
        <mxCell id="5AGytH0vMHzYRCZaH0UC-78" value="" style="html=1;dashed=0;whitespace=wrap;fillColor=#A680B8;strokeColor=#ffffff;points=[[0.005,0.63,0],[0.1,0.2,0],[0.9,0.2,0],[0.5,0,0],[0.995,0.63,0],[0.72,0.99,0],[0.5,1,0],[0.28,0.99,0]];shape=mxgraph.kubernetes.icon;prIcon=pod" vertex="1" parent="1">
          <mxGeometry x="850" y="531" width="70" height="59" as="geometry" />
        </mxCell>
        <mxCell id="5AGytH0vMHzYRCZaH0UC-82" value="" style="html=1;dashed=0;whitespace=wrap;fillColor=#999999;strokeColor=#ffffff;points=[[0.005,0.63,0],[0.1,0.2,0],[0.9,0.2,0],[0.5,0,0],[0.995,0.63,0],[0.72,0.99,0],[0.5,1,0],[0.28,0.99,0]];shape=mxgraph.kubernetes.icon;prIcon=pod" vertex="1" parent="1">
          <mxGeometry x="310" y="540" width="60" height="61" as="geometry" />
        </mxCell>
        <mxCell id="5AGytH0vMHzYRCZaH0UC-83" value="" style="html=1;dashed=0;whitespace=wrap;fillColor=#999999;strokeColor=#ffffff;points=[[0.005,0.63,0],[0.1,0.2,0],[0.9,0.2,0],[0.5,0,0],[0.995,0.63,0],[0.72,0.99,0],[0.5,1,0],[0.28,0.99,0]];shape=mxgraph.kubernetes.icon;prIcon=pod" vertex="1" parent="1">
          <mxGeometry x="610" y="518" width="80" height="62" as="geometry" />
        </mxCell>
        <mxCell id="5AGytH0vMHzYRCZaH0UC-85" value="" style="html=1;dashed=0;whitespace=wrap;fillColor=#99FF99;strokeColor=#ffffff;points=[[0.005,0.63,0],[0.1,0.2,0],[0.9,0.2,0],[0.5,0,0],[0.995,0.63,0],[0.72,0.99,0],[0.5,1,0],[0.28,0.99,0]];shape=mxgraph.kubernetes.icon;prIcon=pod" vertex="1" parent="1">
          <mxGeometry x="660" y="601" width="70" height="59" as="geometry" />
        </mxCell>
        <mxCell id="5AGytH0vMHzYRCZaH0UC-86" value="" style="html=1;dashed=0;whitespace=wrap;fillColor=#3399FF;strokeColor=#ffffff;points=[[0.005,0.63,0],[0.1,0.2,0],[0.9,0.2,0],[0.5,0,0],[0.995,0.63,0],[0.72,0.99,0],[0.5,1,0],[0.28,0.99,0]];shape=mxgraph.kubernetes.icon;prIcon=pod" vertex="1" parent="1">
          <mxGeometry x="970" y="580" width="70" height="69" as="geometry" />
        </mxCell>
        <mxCell id="5AGytH0vMHzYRCZaH0UC-89" value="" style="curved=1;endArrow=classic;html=1;entryX=0.9;entryY=0.2;entryDx=0;entryDy=0;entryPerimeter=0;exitX=0.5;exitY=1;exitDx=0;exitDy=0;exitPerimeter=0;" edge="1" parent="1" source="5AGytH0vMHzYRCZaH0UC-52" target="5AGytH0vMHzYRCZaH0UC-73">
          <mxGeometry width="50" height="50" relative="1" as="geometry">
            <mxPoint x="180" y="570" as="sourcePoint" />
            <mxPoint x="230" y="520" as="targetPoint" />
            <Array as="points">
              <mxPoint x="230" y="570" />
              <mxPoint x="180" y="520" />
            </Array>
          </mxGeometry>
        </mxCell>
        <mxCell id="5AGytH0vMHzYRCZaH0UC-98" value="" style="curved=1;endArrow=classic;html=1;entryX=0.449;entryY=0.354;entryDx=0;entryDy=0;entryPerimeter=0;" edge="1" parent="1" source="5AGytH0vMHzYRCZaH0UC-53" target="5AGytH0vMHzYRCZaH0UC-76">
          <mxGeometry width="50" height="50" relative="1" as="geometry">
            <mxPoint x="380" y="500" as="sourcePoint" />
            <mxPoint x="330" y="550" as="targetPoint" />
            <Array as="points">
              <mxPoint x="330" y="500" />
              <mxPoint x="380" y="550" />
            </Array>
          </mxGeometry>
        </mxCell>
        <mxCell id="5AGytH0vMHzYRCZaH0UC-105" value="" style="curved=1;endArrow=classic;html=1;exitX=0.5;exitY=1;exitDx=0;exitDy=0;exitPerimeter=0;entryX=0.3;entryY=0.72;entryDx=0;entryDy=0;entryPerimeter=0;" edge="1" parent="1" source="5AGytH0vMHzYRCZaH0UC-54" target="5AGytH0vMHzYRCZaH0UC-83">
          <mxGeometry width="50" height="50" relative="1" as="geometry">
            <mxPoint x="640" y="520" as="sourcePoint" />
            <mxPoint x="590" y="570" as="targetPoint" />
            <Array as="points">
              <mxPoint x="590" y="520" />
            </Array>
          </mxGeometry>
        </mxCell>
        <mxCell id="5AGytH0vMHzYRCZaH0UC-109" value="" style="curved=1;endArrow=classic;html=1;entryX=0.489;entryY=0.443;entryDx=0;entryDy=0;entryPerimeter=0;" edge="1" parent="1" source="5AGytH0vMHzYRCZaH0UC-56" target="5AGytH0vMHzYRCZaH0UC-85">
          <mxGeometry width="50" height="50" relative="1" as="geometry">
            <mxPoint x="950" y="540" as="sourcePoint" />
            <mxPoint x="900" y="590" as="targetPoint" />
            <Array as="points">
              <mxPoint x="900" y="540" />
              <mxPoint x="950" y="590" />
            </Array>
          </mxGeometry>
        </mxCell>
        <mxCell id="5AGytH0vMHzYRCZaH0UC-110" value="" style="curved=1;endArrow=classic;html=1;exitX=0.5;exitY=1;exitDx=0;exitDy=0;exitPerimeter=0;entryX=0.5;entryY=0;entryDx=0;entryDy=0;entryPerimeter=0;" edge="1" parent="1" source="5AGytH0vMHzYRCZaH0UC-58" target="5AGytH0vMHzYRCZaH0UC-86">
          <mxGeometry width="50" height="50" relative="1" as="geometry">
            <mxPoint x="1090" y="540" as="sourcePoint" />
            <mxPoint x="1040" y="590" as="targetPoint" />
            <Array as="points">
              <mxPoint x="1040" y="540" />
              <mxPoint x="1090" y="590" />
            </Array>
          </mxGeometry>
        </mxCell>
        <mxCell id="5AGytH0vMHzYRCZaH0UC-113" value="" style="curved=1;endArrow=classic;html=1;exitX=0.5;exitY=1;exitDx=0;exitDy=0;exitPerimeter=0;entryX=0.263;entryY=0.366;entryDx=0;entryDy=0;entryPerimeter=0;" edge="1" parent="1" source="5AGytH0vMHzYRCZaH0UC-55" target="5AGytH0vMHzYRCZaH0UC-78">
          <mxGeometry width="50" height="50" relative="1" as="geometry">
            <mxPoint x="770" y="570" as="sourcePoint" />
            <mxPoint x="820" y="520" as="targetPoint" />
            <Array as="points">
              <mxPoint x="820" y="570" />
              <mxPoint x="770" y="520" />
            </Array>
          </mxGeometry>
        </mxCell>
        <mxCell id="5AGytH0vMHzYRCZaH0UC-118" value="" style="aspect=fixed;html=1;points=[];align=center;image;fontSize=12;image=img/lib/mscae/SchedulerJobCollection.svg;strokeColor=#3333FF;fillColor=#97D077;" vertex="1" parent="1">
          <mxGeometry x="230" y="610" width="46.51" height="40" as="geometry" />
        </mxCell>
        <mxCell id="5AGytH0vMHzYRCZaH0UC-119" value="event-comparison scheduler job" style="text;strokeColor=none;fillColor=none;html=1;whiteSpace=wrap;verticalAlign=middle;overflow=hidden;" vertex="1" parent="1">
          <mxGeometry x="115" y="605.75" width="120" height="49.5" as="geometry" />
        </mxCell>
        <mxCell id="5AGytH0vMHzYRCZaH0UC-120" value="" style="curved=1;endArrow=classic;html=1;entryX=0.45;entryY=0.284;entryDx=0;entryDy=0;entryPerimeter=0;exitX=0.25;exitY=1;exitDx=0;exitDy=0;exitPerimeter=0;" edge="1" parent="1" source="5AGytH0vMHzYRCZaH0UC-53" target="5AGytH0vMHzYRCZaH0UC-74">
          <mxGeometry width="50" height="50" relative="1" as="geometry">
            <mxPoint x="330" y="510" as="sourcePoint" />
            <mxPoint x="280" y="560" as="targetPoint" />
            <Array as="points">
              <mxPoint x="280" y="510" />
              <mxPoint x="330" y="560" />
            </Array>
          </mxGeometry>
        </mxCell>
        <mxCell id="5AGytH0vMHzYRCZaH0UC-121" value="" style="curved=1;endArrow=classic;html=1;entryX=0.9;entryY=0.2;entryDx=0;entryDy=0;entryPerimeter=0;" edge="1" parent="1" source="5AGytH0vMHzYRCZaH0UC-54" target="5AGytH0vMHzYRCZaH0UC-82">
          <mxGeometry width="50" height="50" relative="1" as="geometry">
            <mxPoint x="560" y="520" as="sourcePoint" />
            <mxPoint x="510" y="570" as="targetPoint" />
            <Array as="points">
              <mxPoint x="510" y="520" />
              <mxPoint x="560" y="570" />
              <mxPoint x="370" y="570" />
            </Array>
          </mxGeometry>
        </mxCell>
        <mxCell id="5AGytH0vMHzYRCZaH0UC-127" value="" style="html=1;dashed=0;whitespace=wrap;fillColor=#4D4D4D;strokeColor=#ffffff;points=[[0.005,0.63,0],[0.1,0.2,0],[0.9,0.2,0],[0.5,0,0],[0.995,0.63,0],[0.72,0.99,0],[0.5,1,0],[0.28,0.99,0]];shape=mxgraph.kubernetes.icon;prIcon=pod" vertex="1" parent="1">
          <mxGeometry x="130" y="680" width="50" height="54" as="geometry" />
        </mxCell>
        <mxCell id="5AGytH0vMHzYRCZaH0UC-128" value="" style="html=1;dashed=0;whitespace=wrap;fillColor=#4D4D4D;strokeColor=#ffffff;points=[[0.005,0.63,0],[0.1,0.2,0],[0.9,0.2,0],[0.5,0,0],[0.995,0.63,0],[0.72,0.99,0],[0.5,1,0],[0.28,0.99,0]];shape=mxgraph.kubernetes.icon;prIcon=pod" vertex="1" parent="1">
          <mxGeometry x="500" y="682" width="50" height="48" as="geometry" />
        </mxCell>
        <mxCell id="5AGytH0vMHzYRCZaH0UC-129" value="" style="html=1;dashed=0;whitespace=wrap;fillColor=#4D4D4D;strokeColor=#ffffff;points=[[0.005,0.63,0],[0.1,0.2,0],[0.9,0.2,0],[0.5,0,0],[0.995,0.63,0],[0.72,0.99,0],[0.5,1,0],[0.28,0.99,0]];shape=mxgraph.kubernetes.icon;prIcon=pod" vertex="1" parent="1">
          <mxGeometry x="870" y="670" width="50" height="48" as="geometry" />
        </mxCell>
        <mxCell id="5AGytH0vMHzYRCZaH0UC-130" value="" style="html=1;dashed=0;whitespace=wrap;fillColor=#A9C4EB;strokeColor=#ffffff;points=[[0.005,0.63,0],[0.1,0.2,0],[0.9,0.2,0],[0.5,0,0],[0.995,0.63,0],[0.72,0.99,0],[0.5,1,0],[0.28,0.99,0]];shape=mxgraph.kubernetes.icon;prIcon=pod" vertex="1" parent="1">
          <mxGeometry x="200" y="692" width="50" height="48" as="geometry" />
        </mxCell>
        <mxCell id="5AGytH0vMHzYRCZaH0UC-131" value="" style="html=1;dashed=0;whitespace=wrap;fillColor=#A9C4EB;strokeColor=#ffffff;points=[[0.005,0.63,0],[0.1,0.2,0],[0.9,0.2,0],[0.5,0,0],[0.995,0.63,0],[0.72,0.99,0],[0.5,1,0],[0.28,0.99,0]];shape=mxgraph.kubernetes.icon;prIcon=pod" vertex="1" parent="1">
          <mxGeometry x="565.5" y="682" width="50" height="48" as="geometry" />
        </mxCell>
        <mxCell id="5AGytH0vMHzYRCZaH0UC-132" value="" style="html=1;dashed=0;whitespace=wrap;fillColor=#A9C4EB;strokeColor=#ffffff;points=[[0.005,0.63,0],[0.1,0.2,0],[0.9,0.2,0],[0.5,0,0],[0.995,0.63,0],[0.72,0.99,0],[0.5,1,0],[0.28,0.99,0]];shape=mxgraph.kubernetes.icon;prIcon=pod" vertex="1" parent="1">
          <mxGeometry x="930" y="670" width="50" height="48" as="geometry" />
        </mxCell>
        <mxCell id="5AGytH0vMHzYRCZaH0UC-140" style="edgeStyle=none;rounded=0;orthogonalLoop=1;jettySize=auto;html=1;exitX=0.25;exitY=1;exitDx=0;exitDy=0;entryX=0.529;entryY=0.624;entryDx=0;entryDy=0;entryPerimeter=0;" edge="1" parent="1" source="5AGytH0vMHzYRCZaH0UC-133" target="5AGytH0vMHzYRCZaH0UC-127">
          <mxGeometry relative="1" as="geometry" />
        </mxCell>
        <mxCell id="5AGytH0vMHzYRCZaH0UC-133" value="node-exporter" style="text;strokeColor=none;fillColor=none;html=1;whiteSpace=wrap;verticalAlign=middle;overflow=hidden;" vertex="1" parent="1">
          <mxGeometry x="130" y="660" width="90" height="40" as="geometry" />
        </mxCell>
        <mxCell id="5AGytH0vMHzYRCZaH0UC-134" value="splunk-k8s-logging" style="text;strokeColor=none;fillColor=none;html=1;whiteSpace=wrap;verticalAlign=middle;overflow=hidden;" vertex="1" parent="1">
          <mxGeometry x="243.5" y="678" width="90" height="40" as="geometry" />
        </mxCell>
        <mxCell id="5AGytH0vMHzYRCZaH0UC-136" value="splunk-k8s-logging" style="text;strokeColor=none;fillColor=none;html=1;whiteSpace=wrap;verticalAlign=middle;overflow=hidden;" vertex="1" parent="1">
          <mxGeometry x="600" y="670" width="90" height="40" as="geometry" />
        </mxCell>
        <mxCell id="5AGytH0vMHzYRCZaH0UC-137" value="splunk-k8s-logging" style="text;strokeColor=none;fillColor=none;html=1;whiteSpace=wrap;verticalAlign=middle;overflow=hidden;" vertex="1" parent="1">
          <mxGeometry x="965" y="660" width="90" height="40" as="geometry" />
        </mxCell>
        <mxCell id="5AGytH0vMHzYRCZaH0UC-138" value="node-exporter" style="text;strokeColor=none;fillColor=none;html=1;whiteSpace=wrap;verticalAlign=middle;overflow=hidden;" vertex="1" parent="1">
          <mxGeometry x="510" y="655.25" width="90" height="40" as="geometry" />
        </mxCell>
        <mxCell id="5AGytH0vMHzYRCZaH0UC-139" value="node-exporter" style="text;strokeColor=none;fillColor=none;html=1;whiteSpace=wrap;verticalAlign=middle;overflow=hidden;" vertex="1" parent="1">
          <mxGeometry x="875" y="646" width="90" height="40" as="geometry" />
        </mxCell>
      </root>
    </mxGraphModel>
  </diagram>
</mxfile>
